<mxfile host="app.diagrams.net" modified="2023-07-12T13:37:01.347Z" agent="Mozilla/5.0 (Windows NT 10.0; Win64; x64) AppleWebKit/537.36 (KHTML, like Gecko) Chrome/99.0.4844.51 Safari/537.36" etag="EclQQ8LnoWjtiRs1wUOD" version="21.6.2" type="github">
  <diagram name="Overview" id="2YBvvXClWsGukQMizWep">
    <mxGraphModel dx="648" dy="723" grid="1" gridSize="10" guides="1" tooltips="1" connect="1" arrows="1" fold="1" page="1" pageScale="1" pageWidth="850" pageHeight="1100" math="0" shadow="0">
      <root>
        <mxCell id="0" />
        <mxCell id="1" parent="0" />
        <mxCell id="M3he5cbrGpUi39JVeMMq-3" value="" style="edgeStyle=orthogonalEdgeStyle;rounded=0;orthogonalLoop=1;jettySize=auto;html=1;shape=flexArrow;" edge="1" parent="1" source="M3he5cbrGpUi39JVeMMq-1" target="M3he5cbrGpUi39JVeMMq-2">
          <mxGeometry relative="1" as="geometry" />
        </mxCell>
        <mxCell id="M3he5cbrGpUi39JVeMMq-1" value="Start generate_html.py" style="rounded=1;whiteSpace=wrap;html=1;" vertex="1" parent="1">
          <mxGeometry x="365" y="320" width="120" height="60" as="geometry" />
        </mxCell>
        <mxCell id="M3he5cbrGpUi39JVeMMq-5" value="" style="edgeStyle=orthogonalEdgeStyle;rounded=0;orthogonalLoop=1;jettySize=auto;html=1;" edge="1" parent="1">
          <mxGeometry relative="1" as="geometry">
            <mxPoint x="484.9999999999999" y="480" as="sourcePoint" />
            <mxPoint x="588.0384757729337" y="480" as="targetPoint" />
            <Array as="points">
              <mxPoint x="550" y="480" />
              <mxPoint x="550" y="480" />
            </Array>
          </mxGeometry>
        </mxCell>
        <mxCell id="M3he5cbrGpUi39JVeMMq-7" value="api call" style="edgeLabel;html=1;align=center;verticalAlign=middle;resizable=0;points=[];" vertex="1" connectable="0" parent="M3he5cbrGpUi39JVeMMq-5">
          <mxGeometry x="-0.3074" y="-3" relative="1" as="geometry">
            <mxPoint x="19" as="offset" />
          </mxGeometry>
        </mxCell>
        <mxCell id="M3he5cbrGpUi39JVeMMq-11" value="" style="edgeStyle=orthogonalEdgeStyle;rounded=0;orthogonalLoop=1;jettySize=auto;html=1;shape=flexArrow;" edge="1" parent="1" source="M3he5cbrGpUi39JVeMMq-2" target="M3he5cbrGpUi39JVeMMq-10">
          <mxGeometry relative="1" as="geometry" />
        </mxCell>
        <mxCell id="M3he5cbrGpUi39JVeMMq-18" style="edgeStyle=orthogonalEdgeStyle;rounded=0;orthogonalLoop=1;jettySize=auto;html=1;exitX=0;exitY=0.5;exitDx=0;exitDy=0;" edge="1" parent="1" source="M3he5cbrGpUi39JVeMMq-2" target="M3he5cbrGpUi39JVeMMq-17">
          <mxGeometry relative="1" as="geometry" />
        </mxCell>
        <mxCell id="M3he5cbrGpUi39JVeMMq-2" value="get_weather" style="rounded=1;whiteSpace=wrap;html=1;" vertex="1" parent="1">
          <mxGeometry x="365" y="460" width="120" height="60" as="geometry" />
        </mxCell>
        <mxCell id="M3he5cbrGpUi39JVeMMq-6" value="openweathermap&amp;nbsp;&lt;br style=&quot;border-color: var(--border-color);&quot;&gt;api" style="ellipse;shape=cloud;whiteSpace=wrap;html=1;" vertex="1" parent="1">
          <mxGeometry x="580" y="450" width="120" height="80" as="geometry" />
        </mxCell>
        <mxCell id="M3he5cbrGpUi39JVeMMq-8" value="" style="edgeStyle=orthogonalEdgeStyle;rounded=0;orthogonalLoop=1;jettySize=auto;html=1;" edge="1" parent="1" source="M3he5cbrGpUi39JVeMMq-6" target="M3he5cbrGpUi39JVeMMq-2">
          <mxGeometry relative="1" as="geometry">
            <mxPoint x="494.9999999999999" y="540" as="sourcePoint" />
            <mxPoint x="598.0384757729337" y="540" as="targetPoint" />
            <Array as="points">
              <mxPoint x="540" y="510" />
              <mxPoint x="540" y="510" />
            </Array>
          </mxGeometry>
        </mxCell>
        <mxCell id="M3he5cbrGpUi39JVeMMq-9" value="response.json" style="edgeLabel;html=1;align=center;verticalAlign=middle;resizable=0;points=[];" vertex="1" connectable="0" parent="M3he5cbrGpUi39JVeMMq-8">
          <mxGeometry x="-0.3074" y="-3" relative="1" as="geometry">
            <mxPoint x="-12" as="offset" />
          </mxGeometry>
        </mxCell>
        <mxCell id="M3he5cbrGpUi39JVeMMq-15" value="" style="edgeStyle=orthogonalEdgeStyle;rounded=0;orthogonalLoop=1;jettySize=auto;html=1;" edge="1" parent="1" source="M3he5cbrGpUi39JVeMMq-10" target="M3he5cbrGpUi39JVeMMq-13">
          <mxGeometry relative="1" as="geometry">
            <Array as="points">
              <mxPoint x="540" y="620" />
              <mxPoint x="540" y="620" />
            </Array>
          </mxGeometry>
        </mxCell>
        <mxCell id="M3he5cbrGpUi39JVeMMq-19" style="edgeStyle=orthogonalEdgeStyle;rounded=0;orthogonalLoop=1;jettySize=auto;html=1;entryX=0.75;entryY=0;entryDx=0;entryDy=0;" edge="1" parent="1" source="M3he5cbrGpUi39JVeMMq-10" target="M3he5cbrGpUi39JVeMMq-17">
          <mxGeometry relative="1" as="geometry" />
        </mxCell>
        <mxCell id="M3he5cbrGpUi39JVeMMq-10" value="get_calendar" style="rounded=1;whiteSpace=wrap;html=1;" vertex="1" parent="1">
          <mxGeometry x="365" y="600" width="120" height="60" as="geometry" />
        </mxCell>
        <mxCell id="M3he5cbrGpUi39JVeMMq-12" value="api call" style="edgeLabel;html=1;align=center;verticalAlign=middle;resizable=0;points=[];" vertex="1" connectable="0" parent="1">
          <mxGeometry x="529.9972499071358" y="623.0155658650957" as="geometry" />
        </mxCell>
        <mxCell id="M3he5cbrGpUi39JVeMMq-16" value="" style="edgeStyle=orthogonalEdgeStyle;rounded=0;orthogonalLoop=1;jettySize=auto;html=1;" edge="1" parent="1" source="M3he5cbrGpUi39JVeMMq-13" target="M3he5cbrGpUi39JVeMMq-10">
          <mxGeometry relative="1" as="geometry">
            <Array as="points">
              <mxPoint x="530" y="650" />
              <mxPoint x="530" y="650" />
            </Array>
          </mxGeometry>
        </mxCell>
        <mxCell id="M3he5cbrGpUi39JVeMMq-13" value="O365 api" style="ellipse;shape=cloud;whiteSpace=wrap;html=1;" vertex="1" parent="1">
          <mxGeometry x="570.57" y="590" width="120" height="80" as="geometry" />
        </mxCell>
        <mxCell id="M3he5cbrGpUi39JVeMMq-14" value="response.json" style="edgeLabel;html=1;align=center;verticalAlign=middle;resizable=0;points=[];" vertex="1" connectable="0" parent="1">
          <mxGeometry x="531.204671503877" y="647.0285714285714" as="geometry" />
        </mxCell>
        <mxCell id="M3he5cbrGpUi39JVeMMq-21" value="" style="edgeStyle=orthogonalEdgeStyle;rounded=0;orthogonalLoop=1;jettySize=auto;html=1;" edge="1" parent="1" source="M3he5cbrGpUi39JVeMMq-17" target="M3he5cbrGpUi39JVeMMq-20">
          <mxGeometry relative="1" as="geometry" />
        </mxCell>
        <mxCell id="M3he5cbrGpUi39JVeMMq-17" value="Generate HTML from Template" style="rounded=1;whiteSpace=wrap;html=1;" vertex="1" parent="1">
          <mxGeometry x="220" y="710" width="120" height="60" as="geometry" />
        </mxCell>
        <mxCell id="M3he5cbrGpUi39JVeMMq-20" value="Save HTML Dashboard" style="whiteSpace=wrap;html=1;rounded=1;" vertex="1" parent="1">
          <mxGeometry x="425" y="710" width="120" height="60" as="geometry" />
        </mxCell>
        <mxCell id="M3he5cbrGpUi39JVeMMq-23" value="Content in Variables" style="edgeLabel;html=1;align=center;verticalAlign=middle;resizable=0;points=[];" vertex="1" connectable="0" parent="1">
          <mxGeometry x="289.83333333333326" y="660" as="geometry" />
        </mxCell>
      </root>
    </mxGraphModel>
  </diagram>
</mxfile>
